<?xml version="1.0" encoding="UTF-8"?>
<svg id="_图层_1" data-name=" 图层 1" xmlns="http://www.w3.org/2000/svg" version="1.1" viewBox="0 0 45 45.7">
  <defs>
    <style>
      .cls-1 {
        stroke: #4e6691;
      }

      .cls-1, .cls-2 {
        fill: none;
        stroke-linecap: round;
        stroke-linejoin: round;
        stroke-width: 3px;
      }

      .cls-3 {
        fill: #4e6691;
      }

      .cls-3, .cls-4 {
        stroke-width: 0px;
      }

      .cls-2 {
        stroke: #ba3e45;
      }

      .cls-4 {
        fill: #ba3e45;
      }
    </style>
  </defs>
  <polyline class="cls-1" points="16.9 11.2 25.7 5.9 34.6 11.2"/>
  <rect class="cls-4" x="0" y="7" width="21.1" height="8.3" rx="2.5" ry="2.5"/>
  <rect class="cls-4" x="30.9" y="7" width="14.1" height="8.3" rx="2.5" ry="2.5"/>
  <polyline class="cls-1" points="8.3 35.6 21.4 30.4 34.6 35.7"/>
  <rect class="cls-4" x="0" y="31.5" width="11.9" height="8.3" rx="2.5" ry="2.5"/>
  <rect class="cls-4" x="30.9" y="31.5" width="14.1" height="8.3" rx="2.5" ry="2.5"/>
  <polyline class="cls-2" points="7.9 23.7 13.9 17.7 19.9 23.8"/>
  <polyline class="cls-2" points="23.1 23.7 29.1 17.7 35.1 23.8"/>
  <g>
    <rect class="cls-3" x="0" y="18.9" width="11.9" height="8.3" rx="2.5" ry="2.5"/>
    <rect class="cls-3" x="15.2" y="18.9" width="11.9" height="8.3" rx="2.5" ry="2.5"/>
    <rect class="cls-3" x="30.9" y="18.9" width="14.1" height="8.3" rx="2.5" ry="2.5"/>
  </g>
</svg>