<?xml version="1.0" encoding="UTF-8"?>
<svg id="_图层_1" data-name=" 图层 1" xmlns="http://www.w3.org/2000/svg" version="1.1" viewBox="0 0 45 45.7">
  <defs>
    <style>
      .cls-1 {
        fill: #4e6691;
      }

      .cls-1, .cls-2 {
        stroke-width: 0px;
      }

      .cls-2 {
        fill: #ba3e45;
      }
    </style>
  </defs>
  <path class="cls-1" d="M9.6,6.3H1.3c-.3,0-.6-.3-.6-.6V1.9c0-.3.3-.6.6-.6h8.3c.2,0,.3,0,.4.2l1.8,1.9c.2.2.2.6,0,.8l-1.8,1.9c-.1.1-.3.2-.4.2Z"/>
  <path class="cls-1" d="M41.2,6.3h-8.3c-.3,0-.6-.3-.6-.6V1.9c0-.3.3-.6.6-.6h8.3c.2,0,.3,0,.4.2l1.8,1.9c.2.2.2.6,0,.8l-1.8,1.9c-.1.1-.3.2-.4.2Z"/>
  <path class="cls-1" d="M29.7,6.3h-1.5c-.3,0-.6-.3-.6-.6V1.9c0-.3.3-.6.6-.6h1.5c.2,0,.3,0,.4.2l1.8,1.9c.2.2.2.6,0,.8l-1.8,1.9c-.1.1-.3.2-.4.2Z"/>
  <path class="cls-1" d="M25,6.3h-12.2c-.3,0-.6-.3-.6-.6V1.9c0-.3.3-.6.6-.6h12.2c.2,0,.3,0,.4.2l1.8,1.9c.2.2.2.6,0,.8l-1.8,1.9c-.1.1-.3.2-.4.2Z"/>
  <path class="cls-1" d="M4.1,27.8H1.3c-.3,0-.6-.3-.6-.6v-3.8c0-.3.3-.6.6-.6h2.9c.2,0,.3,0,.4.2l1.8,1.9c.2.2.2.6,0,.8l-1.8,1.9c-.1.1-.3.2-.4.2Z"/>
  <path class="cls-1" d="M41.2,27.8h-10.9c-.3,0-.6-.3-.6-.6v-3.8c0-.3.3-.6.6-.6h10.9c.2,0,.3,0,.4.2l1.8,1.9c.2.2.2.6,0,.8l-1.8,1.9c-.1.1-.3.2-.4.2Z"/>
  <path class="cls-1" d="M27.2,27.8h-15.7c-.3,0-.6-.3-.6-.6v-3.8c0-.3.3-.6.6-.6h15.7c.2,0,.3,0,.4.2l1.8,1.9c.2.2.2.6,0,.8l-1.8,1.9c-.1.1-.3.2-.4.2Z"/>
  <path class="cls-1" d="M8.3,27.8h-1.1c-.3,0-.6-.3-.6-.6v-3.8c0-.3.3-.6.6-.6h1.1c.2,0,.3,0,.4.2l1.8,1.9c.2.2.2.6,0,.8l-1.8,1.9c-.1.1-.3.2-.4.2Z"/>
  <rect class="cls-2" x=".7" y="7.6" width="21.8" height="2.1" rx="1" ry="1"/>
  <rect class="cls-2" x=".7" y="28.8" width="14.7" height="2.1" rx="1" ry="1"/>
  <rect class="cls-2" x="4.1" y="31.4" width="14.7" height="2.1" rx="1" ry="1"/>
  <rect class="cls-2" x="5.8" y="34.1" width="10" height="2.1" rx="1" ry="1"/>
  <rect class="cls-2" x="19" y="36.7" width="10" height="2.1" rx="1" ry="1"/>
  <rect class="cls-2" x="21.6" y="39.3" width="10" height="2.1" rx="1" ry="1"/>
  <rect class="cls-2" x="16.4" y="34.1" width="12.7" height="2.1" rx="1" ry="1"/>
  <rect class="cls-2" x="29.6" y="34.1" width="13.3" height="2.1" rx="1" ry="1"/>
  <rect class="cls-2" x="19.3" y="31.4" width="14.7" height="2.1" rx="1" ry="1"/>
  <rect class="cls-2" x="15.8" y="28.8" width="21.7" height="2.1" rx="1" ry="1"/>
  <rect class="cls-2" x="2.2" y="10.1" width="18.9" height="2.1" rx="1" ry="1"/>
  <rect class="cls-2" x="1.2" y="12.7" width="17.9" height="2.1" rx="1" ry="1"/>
  <rect class="cls-2" x="6.7" y="15.4" width="11.1" height="2.1" rx="1" ry="1"/>
  <rect class="cls-2" x="18.4" y="15.4" width="16" height="2.1" rx="1" ry="1"/>
  <rect class="cls-2" x="9.1" y="17.8" width="11.1" height="2.1" rx="1" ry="1"/>
  <rect class="cls-2" x="24" y="10.1" width="18.9" height="2.1" rx="1" ry="1"/>
  <rect class="cls-2" x="28.7" y="12.7" width="10" height="2.1" rx="1" ry="1"/>
  <rect class="cls-2" x="22.9" y="7.6" width="15.2" height="2.1" rx="1" ry="1"/>
</svg>