<?xml version="1.0" encoding="UTF-8"?>
<svg id="_图层_1" data-name=" 图层 1" xmlns="http://www.w3.org/2000/svg" version="1.1" viewBox="0 0 45 45.7">
  <defs>
    <style>
      .cls-1 {
        fill: #4e6691;
      }

      .cls-1, .cls-2 {
        stroke-width: 0px;
      }

      .cls-3 {
        stroke: #4e6691;
        stroke-miterlimit: 10;
        stroke-width: 2px;
      }

      .cls-3, .cls-4 {
        fill: none;
      }

      .cls-4 {
        stroke: #ba3e45;
        stroke-linecap: round;
        stroke-linejoin: round;
        stroke-width: 3px;
      }

      .cls-2 {
        fill: #ba3e45;
      }
    </style>
  </defs>
  <line class="cls-4" x1="14" y1="10.1" x2="41.4" y2="10.1"/>
  <line class="cls-3" x1="14" y1="19.9" x2="37.4" y2="19.9"/>
  <line class="cls-3" x1="27.1" y1="37" x2="37.4" y2="37"/>
  <polyline class="cls-3" points="37.4 28.4 26 26.9 15.5 28.4"/>
  <rect class="cls-2" y="6.3" width="17.2" height="7.6" rx="2.5" ry="2.5"/>
  <rect class="cls-1" x="2.5" y="17.4" width="14.7" height="5" rx=".2" ry=".2"/>
  <rect class="cls-1" x=".7" y="34.5" width="16.5" height="5" rx=".2" ry=".2"/>
  <rect class="cls-1" x="23.9" y="17.4" width="9.2" height="5" rx=".2" ry=".2"/>
  <rect class="cls-1" x="35.8" y="26" width="8" height="5" rx=".2" ry=".2"/>
  <rect class="cls-1" x="9.1" y="26" width="8" height="5" rx=".2" ry=".2"/>
  <rect class="cls-1" x="35.8" y="17.4" width="2" height="5" rx=".2" ry=".2"/>
  <rect class="cls-1" x="23.9" y="34.5" width="9.2" height="5" rx=".2" ry=".2"/>
  <rect class="cls-1" x="35.8" y="34.5" width="5" height="5" rx=".2" ry=".2"/>
  <rect class="cls-2" x="23.9" y="6.3" width="9.2" height="7.6" rx="2.5" ry="2.5"/>
  <rect class="cls-2" x="35.8" y="6.3" width="9.2" height="7.6" rx="2.5" ry="2.5"/>
</svg>