<?xml version="1.0" encoding="UTF-8"?>
<svg id="_图层_1" data-name=" 图层 1" xmlns="http://www.w3.org/2000/svg" version="1.1" xmlns:xlink="http://www.w3.org/1999/xlink" viewBox="0 0 68.2 68.2">
  <defs>
    <style>
      .cls-1 {
        fill: #fff;
        stroke: #000;
        stroke-linecap: round;
        stroke-miterlimit: 10;
        stroke-width: 3px;
      }

      .cls-2 {
        fill: url(#_未命名的渐变_2);
      }

      .cls-2, .cls-3, .cls-4 {
        stroke-width: 0px;
      }

      .cls-3 {
        fill: url(#_未命名的渐变_3);
      }

      .cls-4 {
        fill: url(#_未命名的渐变_2-2);
      }
    </style>
    <linearGradient id="_未命名的渐变_2" data-name="未命名的渐变 2" x1="36.1" y1="32.7" x2="65.8" y2="32.7" gradientUnits="userSpaceOnUse">
      <stop offset="0" stop-color="#fff"/>
      <stop offset="1" stop-color="#4e6691"/>
    </linearGradient>
    <linearGradient id="_未命名的渐变_3" data-name="未命名的渐变 3" x1="36.1" y1="32.7" x2="65.8" y2="32.7" gradientUnits="userSpaceOnUse">
      <stop offset="0" stop-color="#fff"/>
      <stop offset="1" stop-color="#ba3e45"/>
    </linearGradient>
    <linearGradient id="_未命名的渐变_2-2" data-name="未命名的渐变 2" x1=".8" y1="32.6" x2="30.6" y2="32.6" gradientTransform="translate(33) rotate(-180) scale(1 -1)" xlink:href="#_未命名的渐变_2"/>
  </defs>
  <line class="cls-1" x1="34.1" y1="2.1" x2="34.1" y2="65.6"/>
  <line class="cls-1" x1="2.4" y1="58.3" x2="65.8" y2="58.3"/>
  <path class="cls-2" d="M36.1,56L61.1,10.8c1.3-2.3,4.8-1.4,4.8,1.2v22.3c0,1.4-.7,2.7-1.9,3.5l-27.9,18.2Z"/>
  <path class="cls-3" d="M36.1,56L61.1,10.8c1.3-2.3,4.8-1.4,4.8,1.2v22.3c0,1.4-.7,2.7-1.9,3.5l-27.9,18.2Z"/>
  <path class="cls-4" d="M32.1,56L7,10.5c-1.2-2.2-4.6-1.3-4.6,1.2v22.6c0,1.4.7,2.7,1.9,3.5l27.9,18.2Z"/>
</svg>